<svg xmlns="http://www.w3.org/2000/svg" viewBox="0 0 171.08 186.41"><defs><style>.cls-1{fill:#fcd20e;}.cls-2{fill:#030505;}.cls-3{fill:#040707;}.cls-4{fill:#040a0a;}.cls-5{fill:#030404;}.cls-6{fill:#ec2727;}.cls-7{fill:#f37624;}</style></defs><title>Asset 1</title><g id="Layer_2" data-name="Layer 2"><g id="Layer_1-2" data-name="Layer 1"><path class="cls-1" d="M72.63,0c-4,12.59-9.77,24.2-16,35.57C46.42,54,45.55,72.45,55.42,91.26c4.66,8.88,9.08,17.88,14.16,27.92.7-6.78.74-12.53,1.89-18.15a55,55,0,0,1,5.79-16.15c5.8-10.28,6.19-20.77.83-31.25-1.3-2.54-.4-4.6.13-6.76C82.2,30.56,78,15.23,72.63,0ZM60.72,91.78c-5-7.69-8.4-15.82-8.73-25-.73-20.52,13.8-35.28,20-54.44.87,2,1.21,2.64,1.42,3.32C77.78,30,76.31,44,70.31,57.43,65.42,68.4,61.14,79.42,60.72,91.78ZM67,101.12c-3.69-15.25.7-28.92,7.74-42.73,2.73,4.24,3.81,8.23,2.81,12.57C75.16,81.38,68.56,90.35,67,101.12Z"/><path class="cls-2" d="M152.67,122.48c-1-4.14-4.09-2.31-6.21-2.36-2.3,0-1.49,2.17-1.5,3.44-.05,19.75,0,39.49-.1,59.24,0,3,1.09,3.68,3.87,3.6s4.69,0,4.33-3.63c-.29-3.05-.06-6.16-.06-9.64,1.66.81,2.91,1.56,4.25,2.07,7.82,3,13.8-1.06,13.81-9.27,0-11.5,0-23,0-34.49,0-4.29-.3-8.47-4.67-10.66C161.78,118.46,157.21,119,152.67,122.48ZM163,146.94c0,5.74,0,11.47,0,17.21,0,3.11-.85,5.92-4.38,6-3.69.1-5.62-2.36-5.63-6,0-11.32,0-22.65,0-34,0-3.71,2.22-5.48,5.59-5.44s4.46,2.32,4.42,5.42C163,135.76,163,141.35,163,146.94Z"/><path class="cls-2" d="M109.56,148c0,5.45-.1,10.91,0,16.36.17,8.46,4.08,11.69,13.76,11.58,8.85-.1,12.6-3.54,12.67-11.77,0-3.42,1.45-7.8-5-6.93-2.25.3-3.19.76-3.06,3.09a31,31,0,0,1-.26,6.6c-.43,2.76-2.44,3.91-5.16,3.81-2.54-.09-4.46-1.31-4.59-3.9-.26-5.15-.22-10.31-.25-15.46,0-2.19,1.65-2.07,3.16-2.07,3.88,0,7.76-.13,11.63,0,2.62.12,3.75-.59,3.63-3.42-.21-5.15,0-10.32-.08-15.48-.18-7.46-4.34-10.89-13.14-11-8.54-.1-13,3.46-13.28,10.87C109.41,136.2,109.56,142.1,109.56,148Zm8-12.37h-.09a49.62,49.62,0,0,1,.42-7,5.12,5.12,0,0,1,8.39-2.71c1.52,1.27,2.55,15.58,1.22,17.08a2.25,2.25,0,0,1-.71.49c-4.41,2.3-9.23-.41-9.23-5.18Z"/><path class="cls-3" d="M74.38,147.39c0,6-.06,12.07,0,18.11s3.12,9.48,9,10.19a32,32,0,0,0,8.46,0c7.12-1,12.27-11.67,8.43-17.39-1.36-2-3.85-.7-5.82-.85s-1.94,1.37-2,2.75c0,1.91,0,3.82-.06,5.74,0,3.26-1.76,4.84-5,4.81s-4.78-1.89-4.93-5c0-.44,0-.88,0-1.32.12-4.83-1.52-11,.88-14.11s8.92-.81,13.63-.9c2.53-.06,3.78-.47,3.67-3.37-.23-5.59,0-11.19-.13-16.79-.08-5.17-3-8.1-7.94-9.24a23.22,23.22,0,0,0-9.75,0c-5.41,1.08-8.31,4.32-8.39,9.79C74.3,135.61,74.38,141.5,74.38,147.39Zm18-12.36h0c0,2.05,0,4.11,0,6.16,0,1.26-.25,2.11-1.84,2.46-6.3,1.39-8.19,0-8.19-6.26,0-2.64,0-5.29,0-7.92.08-3.29,2.08-4.78,5.17-4.75,2.91,0,4.75,1.5,4.79,4.59C92.44,131.22,92.42,133.12,92.42,135Z"/><path class="cls-4" d="M51.06,119.89c-4.69.34-10.67-.64-16.56.8A28.5,28.5,0,0,0,12.62,148c0,7.81.05,15.61,0,23.42,0,2.59.46,5.12,3.57,5.09,10.4-.07,20.89,1.13,31.2-.67C61.3,173.38,70.65,162,70.82,148.11c.09-7.8,0-15.61.09-23.42.06-3.38-1.37-4.87-4.76-4.82C61.53,120,56.91,119.89,51.06,119.89Zm-34,37.45h0c0-3.09,0-6.18,0-9.27a23.67,23.67,0,0,1,22.69-23.81c7.58-.39,15.19-.07,22.79-.15,2.83,0,4,1.18,3.94,4-.12,7.36.13,14.73-.18,22.08-.47,11.33-10.91,21.53-22.37,21.93-7.59.26-15.19,0-22.79.13-3.1,0-4.23-1.32-4.1-4.31C17.2,164.42,17.08,160.88,17.08,157.34Z"/><path class="cls-5" d="M.07,148.71c0,8.26.15,16.53-.07,24.78-.08,3.17,1.55,3.14,3.85,3.15s3.56-.12,3.54-3q-.18-25.22,0-50.44c0-3.07-1.51-3.13-3.86-3.23-2.76-.11-3.58.8-3.53,3.51C.17,131.9.07,140.31.07,148.71Z"/><path class="cls-6" d="M60.72,91.78c.42-12.36,4.7-23.38,9.59-34.35C76.31,44,77.78,30,73.42,15.67c-.21-.68-.55-1.31-1.42-3.32C65.79,31.51,51.26,46.27,52,66.79,52.32,76,55.69,84.09,60.72,91.78Z"/><path class="cls-7" d="M67,101.12C68.56,90.35,75.16,81.38,77.58,71c1-4.34-.08-8.33-2.81-12.57C67.73,72.2,63.34,85.87,67,101.12Z"/></g></g></svg>